<svg width="28" height="28" viewBox="0 0 28 28" fill="none" xmlns="http://www.w3.org/2000/svg">
<path fill-rule="evenodd" clip-rule="evenodd" d="M14 0C6.272 0 0 6.272 0 14C0 21.728 6.272 28 14 28C21.728 28 28 21.728 28 14C28 6.272 21.728 0 14 0ZM14 21C13.23 21 12.6 20.37 12.6 19.6V14C12.6 13.23 13.23 12.6 14 12.6C14.77 12.6 15.4 13.23 15.4 14V19.6C15.4 20.37 14.77 21 14 21ZM14 9.8C14.7732 9.8 15.4 9.1732 15.4 8.4C15.4 7.6268 14.7732 7 14 7C13.2268 7 12.6 7.6268 12.6 8.4C12.6 9.1732 13.2268 9.8 14 9.8Z" fill="#333333"/>
</svg>
