<svg width="26" height="35" viewBox="0 0 26 35" fill="none" xmlns="http://www.w3.org/2000/svg">
<path fill-rule="evenodd" clip-rule="evenodd" d="M22.75 11.375H21.125V8.125C21.125 3.64 17.485 0 13 0C8.515 0 4.875 3.64 4.875 8.125V11.375H3.25C1.4625 11.375 0 12.8375 0 14.625V30.875C0 32.6625 1.4625 34.125 3.25 34.125H22.75C24.5375 34.125 26 32.6625 26 30.875V14.625C26 12.8375 24.5375 11.375 22.75 11.375ZM13 26C11.2125 26 9.75 24.5375 9.75 22.75C9.75 20.9625 11.2125 19.5 13 19.5C14.7875 19.5 16.25 20.9625 16.25 22.75C16.25 24.5375 14.7875 26 13 26ZM8.125 8.125V11.375H17.875V8.125C17.875 5.4275 15.6975 3.25 13 3.25C10.3025 3.25 8.125 5.4275 8.125 8.125Z" fill="#333333"/>
</svg>
