<svg width="22" height="15" viewBox="0 0 22 15" fill="none" xmlns="http://www.w3.org/2000/svg">
<path d="M21.8543 6.92503C20.9673 5.52247 19.9118 4.37861 18.6878 3.49344L17.4041 4.45701C18.4509 5.20791 19.3627 6.19023 20.1512 7.41363C18.052 10.6748 15.0722 12.2239 11 12.2239C9.77764 12.2239 8.65176 12.0826 7.62234 11.8001L6.23137 12.8441C7.66111 13.3397 9.25065 13.5875 11 13.5875C15.8493 13.5875 19.4674 11.6918 21.8543 7.90034C21.9502 7.74786 22 7.58132 22 7.41269C22 7.24405 21.9502 7.07751 21.8543 6.92503ZM20.2504 0.852713L19.1748 0.0444343C19.156 0.0303479 19.1338 0.0191732 19.1093 0.0115488C19.0848 0.00392442 19.0585 0 19.032 0C19.0054 0 18.9792 0.00392442 18.9547 0.0115488C18.9302 0.0191732 18.9079 0.0303479 18.8892 0.0444343L16.1297 2.11475C14.6082 1.53145 12.8984 1.23981 11 1.23981C6.15063 1.23981 2.53253 3.13551 0.145696 6.92692C0.0497568 7.07941 0 7.24595 0 7.41458C0 7.58321 0.0497568 7.74975 0.145696 7.90224C1.09925 9.40971 2.24725 10.618 3.5897 11.5272L0.919777 13.5306C0.881952 13.5591 0.860704 13.5976 0.860704 13.6377C0.860704 13.6779 0.881952 13.7164 0.919777 13.7448L1.99688 14.5533C2.03473 14.5817 2.08605 14.5976 2.13956 14.5976C2.19307 14.5976 2.24439 14.5817 2.28224 14.5533L20.2504 1.06709C20.2691 1.05302 20.284 1.03631 20.2942 1.01792C20.3043 0.999528 20.3096 0.979813 20.3096 0.959903C20.3096 0.939993 20.3043 0.920278 20.2942 0.901885C20.284 0.883493 20.2691 0.866784 20.2504 0.852713ZM1.84878 7.41363C3.9505 4.15249 6.93026 2.60335 11 2.60335C12.3761 2.60335 13.6273 2.78061 14.7624 3.14101L12.9887 4.47235C12.1487 4.13594 11.1868 4.01109 10.2451 4.11622C9.30335 4.22134 8.43155 4.55087 7.75831 5.0562C7.08508 5.56153 6.64605 6.2159 6.50599 6.92277C6.36594 7.62964 6.53228 8.35158 6.98047 8.98209L4.87571 10.5619C3.71081 9.79018 2.70662 8.7446 1.84878 7.41363ZM8.07321 7.41363C8.07366 7.07969 8.17904 6.75053 8.3808 6.4529C8.58257 6.15526 8.87503 5.89755 9.23442 5.7007C9.5938 5.50384 10.01 5.3734 10.4492 5.31995C10.8883 5.26651 11.3381 5.29158 11.762 5.39313L8.20719 8.06132C8.11809 7.85194 8.07289 7.63343 8.07321 7.41363Z" fill="#D87234"/>
<path d="M10.8991 9.53476C10.8118 9.53476 10.7258 9.53173 10.6405 9.52586L9.3078 10.5262C10.1094 10.7566 10.9827 10.8078 11.8222 10.6736C12.6617 10.5394 13.4314 10.2256 14.0384 9.76999C14.6453 9.31444 15.0634 8.73667 15.2422 8.10655C15.421 7.47642 15.3528 6.82091 15.0458 6.21927L13.7131 7.21958C13.7209 7.28359 13.725 7.34817 13.725 7.41369C13.7252 7.69228 13.6522 7.96816 13.5103 8.22557C13.3683 8.48298 13.1602 8.71686 12.8977 8.91385C12.6353 9.11084 12.3237 9.26707 11.9807 9.37361C11.6378 9.48015 11.2703 9.53491 10.8991 9.53476Z" fill="#D87234"/>
</svg>
