<svg width="31" height="39" viewBox="0 0 31 39" fill="none" xmlns="http://www.w3.org/2000/svg">
<path d="M19.7023 19.5017L30.0381 11.2907C30.3593 11.0388 30.6091 10.7298 30.7693 10.3864C30.9295 10.0429 30.9959 9.67379 30.9637 9.30603C30.9314 8.93826 30.8014 8.58121 30.5831 8.26108C30.3648 7.94096 30.0638 7.66588 29.7021 7.45603L17.6352 0.458303C17.1827 0.192674 16.652 0.0360783 16.1008 0.00552287C15.5496 -0.0250325 14.9989 0.0716205 14.5086 0.284985C14.0337 0.491693 13.6341 0.802102 13.3521 1.18343C13.0701 1.56476 12.9162 2.00286 12.9066 2.45147V15.8836L4.66385 7.21772C4.21841 6.76954 3.57886 6.48809 2.88591 6.43527C2.19296 6.38245 1.50337 6.5626 0.968833 6.93608C0.434298 7.30956 0.0986088 7.84578 0.0356133 8.42678C-0.0273822 9.00778 0.187476 9.58597 0.632921 10.0341L9.59916 19.5017L0.555403 29.0992C0.132909 29.5481 -0.0607276 30.1189 0.0167201 30.6871C0.0941677 31.2553 0.436417 31.7748 0.968833 32.1322C1.43994 32.3995 2.00306 32.529 2.57087 32.5005C2.95899 32.499 3.34172 32.4243 3.69064 32.2817C4.03956 32.1392 4.3457 31.9326 4.58634 31.6773L12.9066 22.8814V36.5085C12.9134 37.1713 13.2322 37.805 13.7936 38.2716C14.355 38.7382 15.1135 39 15.904 39C16.5232 39.0019 17.128 38.843 17.6352 38.545L29.6246 31.6556C29.9821 31.4438 30.2804 31.1695 30.499 30.8515C30.7176 30.5336 30.8513 30.1796 30.8908 29.8141C30.9248 29.4516 30.8637 29.0873 30.712 28.7468C30.5602 28.4062 30.3214 28.0976 30.0122 27.8426L19.7023 19.5017ZM18.0745 5.98283L24.5343 9.73084L18.0745 14.8437V5.98283ZM18.0745 33.0422V24.2246L24.4568 29.3808L18.0745 33.0422Z" fill="black"/>
</svg>
