<svg width="23" height="27" viewBox="0 0 23 27" fill="none" xmlns="http://www.w3.org/2000/svg">
<path d="M14.6313 13.1968L22.3068 7.64044C22.5453 7.46998 22.7308 7.26088 22.8498 7.02848C22.9687 6.79607 23.018 6.54627 22.9941 6.2974C22.9702 6.04854 22.8736 5.80692 22.7115 5.59029C22.5494 5.37366 22.3259 5.18751 22.0573 5.04551L13.0962 0.310135C12.7601 0.130383 12.366 0.0244142 11.9567 0.00373733C11.5474 -0.0169396 11.1385 0.0484657 10.7744 0.19285C10.4216 0.33273 10.1249 0.542784 9.91551 0.800831C9.70611 1.05888 9.5918 1.35534 9.58465 1.65891V10.7485L3.46346 4.88424C3.13266 4.58096 2.65772 4.3905 2.14313 4.35476C1.62853 4.31902 1.11643 4.44092 0.719471 4.69366C0.322517 4.94639 0.0732286 5.30925 0.026447 5.70242C-0.0203345 6.09558 0.139223 6.48684 0.470018 6.79012L7.1285 13.1968L0.412451 19.6915C0.0987002 19.9953 -0.0450973 20.3815 0.0124166 20.766C0.0699305 21.1505 0.324091 21.502 0.719471 21.7439C1.06932 21.9248 1.48751 22.0124 1.90917 21.9932C2.19739 21.9922 2.48162 21.9415 2.74073 21.8451C2.99984 21.7487 3.22719 21.6089 3.40589 21.4361L9.58465 15.4839V24.7054C9.58971 25.1539 9.82646 25.5827 10.2433 25.8984C10.6602 26.2142 11.2235 26.3914 11.8105 26.3914C12.2704 26.3927 12.7196 26.2851 13.0962 26.0835L21.9997 21.4214C22.2652 21.2781 22.4868 21.0924 22.6491 20.8773C22.8114 20.6621 22.9107 20.4226 22.94 20.1753C22.9652 19.93 22.9199 19.6835 22.8072 19.453C22.6945 19.2225 22.5171 19.0137 22.2876 18.8411L14.6313 13.1968ZM13.4224 4.04859L18.2196 6.58487L13.4224 10.0448V4.04859ZM13.4224 22.3597V16.3928L18.162 19.882L13.4224 22.3597Z" fill="#DFE4EA"/>
</svg>
