<svg width="44" height="45" viewBox="0 0 44 45" fill="none" xmlns="http://www.w3.org/2000/svg">
<g clip-path="url(#clip0_561_3069)">
<path d="M37.4793 38.3373H30.9599V27.8953C30.9599 25.4054 30.9164 22.2 27.5692 22.2C24.1736 22.2 23.654 24.913 23.654 27.7141V38.3366H17.1348V16.8638H23.3933V19.7983H23.4809C24.1073 18.703 25.0123 17.802 26.0998 17.1911C27.1872 16.5803 28.4163 16.2826 29.6561 16.3296C36.2638 16.3296 37.482 20.7748 37.482 26.5576L37.4793 38.3373ZM9.77854 13.9288C7.68906 13.9291 5.99488 12.197 5.99454 10.06C5.9942 7.92306 7.68768 6.19038 9.77716 6.19003C11.8666 6.1895 13.5608 7.92165 13.5612 10.0586C13.5613 11.0848 13.1629 12.0691 12.4536 12.7949C11.7442 13.5207 10.782 13.9286 9.77854 13.9288ZM13.0383 38.3374H6.51206V16.8638H13.0381V38.3373L13.0383 38.3374ZM40.7294 -0.00221803H3.23612C1.46409 -0.0226087 0.0108835 1.42917 -0.0107727 3.24147V41.7469C0.010196 43.5601 1.46323 45.0132 3.23595 44.9943H40.7294C42.5059 45.0168 43.9646 43.5636 43.9892 41.7469V3.23849C43.964 1.42266 42.5051 -0.0289368 40.7294 -0.00520631" fill="#0A66C2"/>
</g>
<defs>
<clipPath id="clip0_561_3069">
<rect width="44" height="45" fill="white"/>
</clipPath>
</defs>
</svg>
